<?xml version="1.0" encoding="utf-8"?>
<!-- Generator: Adobe Illustrator 25.4.1, SVG Export Plug-In . SVG Version: 6.00 Build 0)  -->
<svg version="1.1" id="Warstwa_1" xmlns="http://www.w3.org/2000/svg" xmlns:xlink="http://www.w3.org/1999/xlink" x="0px" y="0px"
	 viewBox="0 0 34 12.6" style="enable-background:new 0 0 34 12.6;" xml:space="preserve">
<style type="text/css">
	.st0{enable-background:new    ;}
</style>
<g class="st0">
	<path d="M11.2,12.6H9.6L8.2,9.1H2.9l-1.3,3.5H0L4.8,0h1.5L11.2,12.6z M7.8,7.7l-2-5.4C5.7,2.2,5.7,1.9,5.6,1.5h0
		C5.5,1.9,5.4,2.2,5.4,2.4l-2,5.4H7.8z"/>
	<path d="M21.7,7.9h-3.6v3.5H17V7.9h-3.5V6.8H17V3.2h1.2v3.5h3.6V7.9z"/>
	<path d="M34,7.9h-3.6v3.5h-1.2V7.9h-3.5V6.8h3.5V3.2h1.2v3.5H34V7.9z"/>
</g>
</svg>
